<svg class="rich-terminal" viewBox="0 0 1629 1026.0" xmlns="http://www.w3.org/2000/svg">
    <!-- Generated with Rich https://www.textualize.io -->
    <style>

    @font-face {
        font-family: "Fira Code";
        src: local("FiraCode-Regular"),
                url("https://cdnjs.cloudflare.com/ajax/libs/firacode/6.2.0/woff2/FiraCode-Regular.woff2") format("woff2"),
                url("https://cdnjs.cloudflare.com/ajax/libs/firacode/6.2.0/woff/FiraCode-Regular.woff") format("woff");
        font-style: normal;
        font-weight: 400;
    }
    @font-face {
        font-family: "Fira Code";
        src: local("FiraCode-Bold"),
                url("https://cdnjs.cloudflare.com/ajax/libs/firacode/6.2.0/woff2/FiraCode-Bold.woff2") format("woff2"),
                url("https://cdnjs.cloudflare.com/ajax/libs/firacode/6.2.0/woff/FiraCode-Bold.woff") format("woff");
        font-style: bold;
        font-weight: 700;
    }

    .terminal-1027874131-matrix {
        font-family: Fira Code, monospace;
        font-size: 20px;
        line-height: 24.4px;
        font-variant-east-asian: full-width;
    }

    .terminal-1027874131-title {
        font-size: 18px;
        font-weight: bold;
        font-family: arial;
    }

    .terminal-1027874131-r1 { fill: #c5c8c6 }
.terminal-1027874131-r2 { fill: #f4faf7;font-weight: bold }
.terminal-1027874131-r3 { fill: #e8c468 }
.terminal-1027874131-r4 { fill: #a9c7ba }
.terminal-1027874131-r5 { fill: #5fd3a0;font-weight: bold }
.terminal-1027874131-r6 { fill: #1a4239 }
.terminal-1027874131-r7 { fill: #5fd3a0 }
.terminal-1027874131-r8 { fill: #0d1e1c }
.terminal-1027874131-r9 { fill: #4fa084 }
.terminal-1027874131-r10 { fill: #eaf4ef }
.terminal-1027874131-r11 { fill: #eaf4ef;font-weight: bold }
.terminal-1027874131-r12 { fill: #182826 }
    </style>

    <defs>
    <clipPath id="terminal-1027874131-clip-terminal">
      <rect x="0" y="0" width="1609.3999999999999" height="975.0" />
    </clipPath>
    <clipPath id="terminal-1027874131-line-0">
    <rect x="0" y="1.5" width="1610.4" height="24.65"/>
            </clipPath>
<clipPath id="terminal-1027874131-line-1">
    <rect x="0" y="25.9" width="1610.4" height="24.65"/>
            </clipPath>
<clipPath id="terminal-1027874131-line-2">
    <rect x="0" y="50.3" width="1610.4" height="24.65"/>
            </clipPath>
<clipPath id="terminal-1027874131-line-3">
    <rect x="0" y="74.7" width="1610.4" height="24.65"/>
            </clipPath>
<clipPath id="terminal-1027874131-line-4">
    <rect x="0" y="99.1" width="1610.4" height="24.65"/>
            </clipPath>
<clipPath id="terminal-1027874131-line-5">
    <rect x="0" y="123.5" width="1610.4" height="24.65"/>
            </clipPath>
<clipPath id="terminal-1027874131-line-6">
    <rect x="0" y="147.9" width="1610.4" height="24.65"/>
            </clipPath>
<clipPath id="terminal-1027874131-line-7">
    <rect x="0" y="172.3" width="1610.4" height="24.65"/>
            </clipPath>
<clipPath id="terminal-1027874131-line-8">
    <rect x="0" y="196.7" width="1610.4" height="24.65"/>
            </clipPath>
<clipPath id="terminal-1027874131-line-9">
    <rect x="0" y="221.1" width="1610.4" height="24.65"/>
            </clipPath>
<clipPath id="terminal-1027874131-line-10">
    <rect x="0" y="245.5" width="1610.4" height="24.65"/>
            </clipPath>
<clipPath id="terminal-1027874131-line-11">
    <rect x="0" y="269.9" width="1610.4" height="24.65"/>
            </clipPath>
<clipPath id="terminal-1027874131-line-12">
    <rect x="0" y="294.3" width="1610.4" height="24.65"/>
            </clipPath>
<clipPath id="terminal-1027874131-line-13">
    <rect x="0" y="318.7" width="1610.4" height="24.65"/>
            </clipPath>
<clipPath id="terminal-1027874131-line-14">
    <rect x="0" y="343.1" width="1610.4" height="24.65"/>
            </clipPath>
<clipPath id="terminal-1027874131-line-15">
    <rect x="0" y="367.5" width="1610.4" height="24.65"/>
            </clipPath>
<clipPath id="terminal-1027874131-line-16">
    <rect x="0" y="391.9" width="1610.4" height="24.65"/>
            </clipPath>
<clipPath id="terminal-1027874131-line-17">
    <rect x="0" y="416.3" width="1610.4" height="24.65"/>
            </clipPath>
<clipPath id="terminal-1027874131-line-18">
    <rect x="0" y="440.7" width="1610.4" height="24.65"/>
            </clipPath>
<clipPath id="terminal-1027874131-line-19">
    <rect x="0" y="465.1" width="1610.4" height="24.65"/>
            </clipPath>
<clipPath id="terminal-1027874131-line-20">
    <rect x="0" y="489.5" width="1610.4" height="24.65"/>
            </clipPath>
<clipPath id="terminal-1027874131-line-21">
    <rect x="0" y="513.9" width="1610.4" height="24.65"/>
            </clipPath>
<clipPath id="terminal-1027874131-line-22">
    <rect x="0" y="538.3" width="1610.4" height="24.65"/>
            </clipPath>
<clipPath id="terminal-1027874131-line-23">
    <rect x="0" y="562.7" width="1610.4" height="24.65"/>
            </clipPath>
<clipPath id="terminal-1027874131-line-24">
    <rect x="0" y="587.1" width="1610.4" height="24.65"/>
            </clipPath>
<clipPath id="terminal-1027874131-line-25">
    <rect x="0" y="611.5" width="1610.4" height="24.65"/>
            </clipPath>
<clipPath id="terminal-1027874131-line-26">
    <rect x="0" y="635.9" width="1610.4" height="24.65"/>
            </clipPath>
<clipPath id="terminal-1027874131-line-27">
    <rect x="0" y="660.3" width="1610.4" height="24.65"/>
            </clipPath>
<clipPath id="terminal-1027874131-line-28">
    <rect x="0" y="684.7" width="1610.4" height="24.65"/>
            </clipPath>
<clipPath id="terminal-1027874131-line-29">
    <rect x="0" y="709.1" width="1610.4" height="24.65"/>
            </clipPath>
<clipPath id="terminal-1027874131-line-30">
    <rect x="0" y="733.5" width="1610.4" height="24.65"/>
            </clipPath>
<clipPath id="terminal-1027874131-line-31">
    <rect x="0" y="757.9" width="1610.4" height="24.65"/>
            </clipPath>
<clipPath id="terminal-1027874131-line-32">
    <rect x="0" y="782.3" width="1610.4" height="24.65"/>
            </clipPath>
<clipPath id="terminal-1027874131-line-33">
    <rect x="0" y="806.7" width="1610.4" height="24.65"/>
            </clipPath>
<clipPath id="terminal-1027874131-line-34">
    <rect x="0" y="831.1" width="1610.4" height="24.65"/>
            </clipPath>
<clipPath id="terminal-1027874131-line-35">
    <rect x="0" y="855.5" width="1610.4" height="24.65"/>
            </clipPath>
<clipPath id="terminal-1027874131-line-36">
    <rect x="0" y="879.9" width="1610.4" height="24.65"/>
            </clipPath>
<clipPath id="terminal-1027874131-line-37">
    <rect x="0" y="904.3" width="1610.4" height="24.65"/>
            </clipPath>
<clipPath id="terminal-1027874131-line-38">
    <rect x="0" y="928.7" width="1610.4" height="24.65"/>
            </clipPath>
    </defs>

    <rect fill="#292929" stroke="rgba(255,255,255,0.35)" stroke-width="1" x="1" y="1" width="1627" height="1024" rx="8"/><text class="terminal-1027874131-title" fill="#c5c8c6" text-anchor="middle" x="813" y="27">cdlbib&#160;tui:&#160;add-search</text>
            <g transform="translate(26,22)">
            <circle cx="0" cy="0" r="7" fill="#ff5f57"/>
            <circle cx="22" cy="0" r="7" fill="#febc2e"/>
            <circle cx="44" cy="0" r="7" fill="#28c840"/>
            </g>
        
    <g transform="translate(9, 41)" clip-path="url(#terminal-1027874131-clip-terminal)">
    <rect fill="#00693e" x="0" y="1.5" width="12.2" height="24.65" shape-rendering="crispEdges"/><rect fill="#00693e" x="12.2" y="1.5" width="1439.6" height="24.65" shape-rendering="crispEdges"/><rect fill="#00693e" x="1451.8" y="1.5" width="158.6" height="24.65" shape-rendering="crispEdges"/><rect fill="#1a4239" x="0" y="25.9" width="12.2" height="24.65" shape-rendering="crispEdges"/><rect fill="#1a4239" x="12.2" y="25.9" width="683.2" height="24.65" shape-rendering="crispEdges"/><rect fill="#1a4239" x="695.4" y="25.9" width="915" height="24.65" shape-rendering="crispEdges"/><rect fill="#12312b" x="0" y="50.3" width="12.2" height="24.65" shape-rendering="crispEdges"/><rect fill="#12312b" x="12.2" y="50.3" width="122" height="24.65" shape-rendering="crispEdges"/><rect fill="#12312b" x="134.2" y="50.3" width="24.4" height="24.65" shape-rendering="crispEdges"/><rect fill="#12312b" x="158.6" y="50.3" width="109.8" height="24.65" shape-rendering="crispEdges"/><rect fill="#12312b" x="268.4" y="50.3" width="24.4" height="24.65" shape-rendering="crispEdges"/><rect fill="#12312b" x="292.8" y="50.3" width="73.2" height="24.65" shape-rendering="crispEdges"/><rect fill="#12312b" x="366" y="50.3" width="24.4" height="24.65" shape-rendering="crispEdges"/><rect fill="#12312b" x="390.4" y="50.3" width="97.6" height="24.65" shape-rendering="crispEdges"/><rect fill="#12312b" x="488" y="50.3" width="24.4" height="24.65" shape-rendering="crispEdges"/><rect fill="#12312b" x="512.4" y="50.3" width="85.4" height="24.65" shape-rendering="crispEdges"/><rect fill="#12312b" x="597.8" y="50.3" width="24.4" height="24.65" shape-rendering="crispEdges"/><rect fill="#12312b" x="622.2" y="50.3" width="195.2" height="24.65" shape-rendering="crispEdges"/><rect fill="#12312b" x="817.4" y="50.3" width="24.4" height="24.65" shape-rendering="crispEdges"/><rect fill="#12312b" x="841.8" y="50.3" width="97.6" height="24.65" shape-rendering="crispEdges"/><rect fill="#12312b" x="939.4" y="50.3" width="671" height="24.65" shape-rendering="crispEdges"/><rect fill="#12312b" x="0" y="74.7" width="292.8" height="24.65" shape-rendering="crispEdges"/><rect fill="#12312b" x="292.8" y="74.7" width="73.2" height="24.65" shape-rendering="crispEdges"/><rect fill="#12312b" x="366" y="74.7" width="1244.4" height="24.65" shape-rendering="crispEdges"/><rect fill="#12312b" x="0" y="99.1" width="12.2" height="24.65" shape-rendering="crispEdges"/><rect fill="#12312b" x="12.2" y="99.1" width="73.2" height="24.65" shape-rendering="crispEdges"/><rect fill="#12312b" x="85.4" y="99.1" width="24.4" height="24.65" shape-rendering="crispEdges"/><rect fill="#12312b" x="109.8" y="99.1" width="122" height="24.65" shape-rendering="crispEdges"/><rect fill="#12312b" x="231.8" y="99.1" width="24.4" height="24.65" shape-rendering="crispEdges"/><rect fill="#12312b" x="256.2" y="99.1" width="36.6" height="24.65" shape-rendering="crispEdges"/><rect fill="#12312b" x="292.8" y="99.1" width="24.4" height="24.65" shape-rendering="crispEdges"/><rect fill="#12312b" x="317.2" y="99.1" width="73.2" height="24.65" shape-rendering="crispEdges"/><rect fill="#12312b" x="390.4" y="99.1" width="1220" height="24.65" shape-rendering="crispEdges"/><rect fill="#12312b" x="0" y="123.5" width="12.2" height="24.65" shape-rendering="crispEdges"/><rect fill="#12312b" x="12.2" y="123.5" width="73.2" height="24.65" shape-rendering="crispEdges"/><rect fill="#12312b" x="85.4" y="123.5" width="1525" height="24.65" shape-rendering="crispEdges"/><rect fill="#0d1e1c" x="0" y="147.9" width="195.2" height="24.65" shape-rendering="crispEdges"/><rect fill="#4fa084" x="195.2" y="147.9" width="12.2" height="24.65" shape-rendering="crispEdges"/><rect fill="#12312b" x="207.4" y="147.9" width="1390.8" height="24.65" shape-rendering="crispEdges"/><rect fill="#0d1e1c" x="1598.2" y="147.9" width="12.2" height="24.65" shape-rendering="crispEdges"/><rect fill="#0d1e1c" x="0" y="172.3" width="61" height="24.65" shape-rendering="crispEdges"/><rect fill="#0d1e1c" x="61" y="172.3" width="134.2" height="24.65" shape-rendering="crispEdges"/><rect fill="#4fa084" x="195.2" y="172.3" width="12.2" height="24.65" shape-rendering="crispEdges"/><rect fill="#12312b" x="207.4" y="172.3" width="24.4" height="24.65" shape-rendering="crispEdges"/><rect fill="#12312b" x="231.8" y="172.3" width="1342" height="24.65" shape-rendering="crispEdges"/><rect fill="#12312b" x="1573.8" y="172.3" width="24.4" height="24.65" shape-rendering="crispEdges"/><rect fill="#0d1e1c" x="1598.2" y="172.3" width="12.2" height="24.65" shape-rendering="crispEdges"/><rect fill="#0d1e1c" x="0" y="196.7" width="195.2" height="24.65" shape-rendering="crispEdges"/><rect fill="#4fa084" x="195.2" y="196.7" width="12.2" height="24.65" shape-rendering="crispEdges"/><rect fill="#12312b" x="207.4" y="196.7" width="1390.8" height="24.65" shape-rendering="crispEdges"/><rect fill="#0d1e1c" x="1598.2" y="196.7" width="12.2" height="24.65" shape-rendering="crispEdges"/><rect fill="#0d1e1c" x="0" y="221.1" width="195.2" height="24.65" shape-rendering="crispEdges"/><rect fill="#4fa084" x="195.2" y="221.1" width="12.2" height="24.65" shape-rendering="crispEdges"/><rect fill="#12312b" x="207.4" y="221.1" width="951.6" height="24.65" shape-rendering="crispEdges"/><rect fill="#0d1e1c" x="1159" y="221.1" width="12.2" height="24.65" shape-rendering="crispEdges"/><rect fill="#0d1e1c" x="1171.2" y="221.1" width="85.4" height="24.65" shape-rendering="crispEdges"/><rect fill="#4fa084" x="1256.6" y="221.1" width="12.2" height="24.65" shape-rendering="crispEdges"/><rect fill="#12312b" x="1268.8" y="221.1" width="122" height="24.65" shape-rendering="crispEdges"/><rect fill="#0d1e1c" x="1390.8" y="221.1" width="12.2" height="24.65" shape-rendering="crispEdges"/><rect fill="#4fa084" x="1403" y="221.1" width="12.2" height="24.65" shape-rendering="crispEdges"/><rect fill="#1a4239" x="1415.2" y="221.1" width="183" height="24.65" shape-rendering="crispEdges"/><rect fill="#0d1e1c" x="1598.2" y="221.1" width="12.2" height="24.65" shape-rendering="crispEdges"/><rect fill="#0d1e1c" x="0" y="245.5" width="85.4" height="24.65" shape-rendering="crispEdges"/><rect fill="#0d1e1c" x="85.4" y="245.5" width="109.8" height="24.65" shape-rendering="crispEdges"/><rect fill="#4fa084" x="195.2" y="245.5" width="12.2" height="24.65" shape-rendering="crispEdges"/><rect fill="#12312b" x="207.4" y="245.5" width="24.4" height="24.65" shape-rendering="crispEdges"/><rect fill="#12312b" x="231.8" y="245.5" width="475.8" height="24.65" shape-rendering="crispEdges"/><rect fill="#12312b" x="707.6" y="245.5" width="427" height="24.65" shape-rendering="crispEdges"/><rect fill="#12312b" x="1134.6" y="245.5" width="24.4" height="24.65" shape-rendering="crispEdges"/><rect fill="#0d1e1c" x="1159" y="245.5" width="12.2" height="24.65" shape-rendering="crispEdges"/><rect fill="#0d1e1c" x="1171.2" y="245.5" width="12.2" height="24.65" shape-rendering="crispEdges"/><rect fill="#0d1e1c" x="1183.4" y="245.5" width="48.8" height="24.65" shape-rendering="crispEdges"/><rect fill="#0d1e1c" x="1232.2" y="245.5" width="24.4" height="24.65" shape-rendering="crispEdges"/><rect fill="#4fa084" x="1256.6" y="245.5" width="12.2" height="24.65" shape-rendering="crispEdges"/><rect fill="#12312b" x="1268.8" y="245.5" width="24.4" height="24.65" shape-rendering="crispEdges"/><rect fill="#12312b" x="1293.2" y="245.5" width="48.8" height="24.65" shape-rendering="crispEdges"/><rect fill="#12312b" x="1342" y="245.5" width="24.4" height="24.65" shape-rendering="crispEdges"/><rect fill="#12312b" x="1366.4" y="245.5" width="24.4" height="24.65" shape-rendering="crispEdges"/><rect fill="#0d1e1c" x="1390.8" y="245.5" width="12.2" height="24.65" shape-rendering="crispEdges"/><rect fill="#4fa084" x="1403" y="245.5" width="12.2" height="24.65" shape-rendering="crispEdges"/><rect fill="#1a4239" x="1415.2" y="245.5" width="183" height="24.65" shape-rendering="crispEdges"/><rect fill="#0d1e1c" x="1598.2" y="245.5" width="12.2" height="24.65" shape-rendering="crispEdges"/><rect fill="#0d1e1c" x="0" y="269.9" width="195.2" height="24.65" shape-rendering="crispEdges"/><rect fill="#4fa084" x="195.2" y="269.9" width="12.2" height="24.65" shape-rendering="crispEdges"/><rect fill="#12312b" x="207.4" y="269.9" width="951.6" height="24.65" shape-rendering="crispEdges"/><rect fill="#0d1e1c" x="1159" y="269.9" width="12.2" height="24.65" shape-rendering="crispEdges"/><rect fill="#0d1e1c" x="1171.2" y="269.9" width="85.4" height="24.65" shape-rendering="crispEdges"/><rect fill="#4fa084" x="1256.6" y="269.9" width="12.2" height="24.65" shape-rendering="crispEdges"/><rect fill="#12312b" x="1268.8" y="269.9" width="122" height="24.65" shape-rendering="crispEdges"/><rect fill="#0d1e1c" x="1390.8" y="269.9" width="12.2" height="24.65" shape-rendering="crispEdges"/><rect fill="#4fa084" x="1403" y="269.9" width="12.2" height="24.65" shape-rendering="crispEdges"/><rect fill="#1a4239" x="1415.2" y="269.9" width="183" height="24.65" shape-rendering="crispEdges"/><rect fill="#0d1e1c" x="1598.2" y="269.9" width="12.2" height="24.65" shape-rendering="crispEdges"/><rect fill="#0d1e1c" x="0" y="294.3" width="12.2" height="24.65" shape-rendering="crispEdges"/><rect fill="#0d1e1c" x="12.2" y="294.3" width="1500.6" height="24.65" shape-rendering="crispEdges"/><rect fill="#0d1e1c" x="1512.8" y="294.3" width="97.6" height="24.65" shape-rendering="crispEdges"/><rect fill="#0d1e1c" x="0" y="318.7" width="12.2" height="24.65" shape-rendering="crispEdges"/><rect fill="#0d1e1c" x="12.2" y="318.7" width="0" height="24.65" shape-rendering="crispEdges"/><rect fill="#0d1e1c" x="12.2" y="318.7" width="1598.2" height="24.65" shape-rendering="crispEdges"/><rect fill="#244a42" x="0" y="343.1" width="36.6" height="24.65" shape-rendering="crispEdges"/><rect fill="#244a42" x="36.6" y="343.1" width="146.4" height="24.65" shape-rendering="crispEdges"/><rect fill="#244a42" x="183" y="343.1" width="219.6" height="24.65" shape-rendering="crispEdges"/><rect fill="#244a42" x="402.6" y="343.1" width="341.6" height="24.65" shape-rendering="crispEdges"/><rect fill="#244a42" x="744.2" y="343.1" width="73.2" height="24.65" shape-rendering="crispEdges"/><rect fill="#244a42" x="817.4" y="343.1" width="610" height="24.65" shape-rendering="crispEdges"/><rect fill="#244a42" x="1427.4" y="343.1" width="183" height="24.65" shape-rendering="crispEdges"/><rect fill="#00693e" x="0" y="367.5" width="36.6" height="24.65" shape-rendering="crispEdges"/><rect fill="#00693e" x="36.6" y="367.5" width="146.4" height="24.65" shape-rendering="crispEdges"/><rect fill="#00693e" x="183" y="367.5" width="219.6" height="24.65" shape-rendering="crispEdges"/><rect fill="#00693e" x="402.6" y="367.5" width="341.6" height="24.65" shape-rendering="crispEdges"/><rect fill="#00693e" x="744.2" y="367.5" width="73.2" height="24.65" shape-rendering="crispEdges"/><rect fill="#00693e" x="817.4" y="367.5" width="610" height="24.65" shape-rendering="crispEdges"/><rect fill="#00693e" x="1427.4" y="367.5" width="183" height="24.65" shape-rendering="crispEdges"/><rect fill="#182826" x="0" y="391.9" width="12.2" height="24.65" shape-rendering="crispEdges"/><rect fill="#182826" x="12.2" y="391.9" width="12.2" height="24.65" shape-rendering="crispEdges"/><rect fill="#182826" x="24.4" y="391.9" width="12.2" height="24.65" shape-rendering="crispEdges"/><rect fill="#182826" x="36.6" y="391.9" width="146.4" height="24.65" shape-rendering="crispEdges"/><rect fill="#182826" x="183" y="391.9" width="219.6" height="24.65" shape-rendering="crispEdges"/><rect fill="#182826" x="402.6" y="391.9" width="341.6" height="24.65" shape-rendering="crispEdges"/><rect fill="#182826" x="744.2" y="391.9" width="73.2" height="24.65" shape-rendering="crispEdges"/><rect fill="#182826" x="817.4" y="391.9" width="610" height="24.65" shape-rendering="crispEdges"/><rect fill="#182826" x="1427.4" y="391.9" width="183" height="24.65" shape-rendering="crispEdges"/><rect fill="#182826" x="0" y="416.3" width="12.2" height="24.65" shape-rendering="crispEdges"/><rect fill="#182826" x="12.2" y="416.3" width="12.2" height="24.65" shape-rendering="crispEdges"/><rect fill="#182826" x="24.4" y="416.3" width="12.2" height="24.65" shape-rendering="crispEdges"/><rect fill="#182826" x="36.6" y="416.3" width="146.4" height="24.65" shape-rendering="crispEdges"/><rect fill="#182826" x="183" y="416.3" width="219.6" height="24.65" shape-rendering="crispEdges"/><rect fill="#182826" x="402.6" y="416.3" width="341.6" height="24.65" shape-rendering="crispEdges"/><rect fill="#182826" x="744.2" y="416.3" width="73.2" height="24.65" shape-rendering="crispEdges"/><rect fill="#182826" x="817.4" y="416.3" width="610" height="24.65" shape-rendering="crispEdges"/><rect fill="#182826" x="1427.4" y="416.3" width="183" height="24.65" shape-rendering="crispEdges"/><rect fill="#182826" x="0" y="440.7" width="1610.4" height="24.65" shape-rendering="crispEdges"/><rect fill="#182826" x="0" y="465.1" width="1610.4" height="24.65" shape-rendering="crispEdges"/><rect fill="#182826" x="0" y="489.5" width="1610.4" height="24.65" shape-rendering="crispEdges"/><rect fill="#182826" x="0" y="513.9" width="1610.4" height="24.65" shape-rendering="crispEdges"/><rect fill="#182826" x="0" y="538.3" width="1610.4" height="24.65" shape-rendering="crispEdges"/><rect fill="#182826" x="0" y="562.7" width="1610.4" height="24.65" shape-rendering="crispEdges"/><rect fill="#182826" x="0" y="587.1" width="1610.4" height="24.65" shape-rendering="crispEdges"/><rect fill="#182826" x="0" y="611.5" width="1610.4" height="24.65" shape-rendering="crispEdges"/><rect fill="#182826" x="0" y="635.9" width="1610.4" height="24.65" shape-rendering="crispEdges"/><rect fill="#182826" x="0" y="660.3" width="1610.4" height="24.65" shape-rendering="crispEdges"/><rect fill="#182826" x="0" y="684.7" width="1610.4" height="24.65" shape-rendering="crispEdges"/><rect fill="#182826" x="0" y="709.1" width="1610.4" height="24.65" shape-rendering="crispEdges"/><rect fill="#182826" x="0" y="733.5" width="1610.4" height="24.65" shape-rendering="crispEdges"/><rect fill="#182826" x="0" y="757.9" width="1610.4" height="24.65" shape-rendering="crispEdges"/><rect fill="#182826" x="0" y="782.3" width="1610.4" height="24.65" shape-rendering="crispEdges"/><rect fill="#182826" x="0" y="806.7" width="1610.4" height="24.65" shape-rendering="crispEdges"/><rect fill="#182826" x="0" y="831.1" width="1610.4" height="24.65" shape-rendering="crispEdges"/><rect fill="#182826" x="0" y="855.5" width="1610.4" height="24.65" shape-rendering="crispEdges"/><rect fill="#182826" x="0" y="879.9" width="1610.4" height="24.65" shape-rendering="crispEdges"/><rect fill="#4fa084" x="0" y="904.3" width="1146.8" height="24.65" shape-rendering="crispEdges"/><rect fill="#12312b" x="1146.8" y="904.3" width="12.2" height="24.65" shape-rendering="crispEdges"/><rect fill="#12312b" x="1159" y="904.3" width="451.4" height="24.65" shape-rendering="crispEdges"/><rect fill="#12312b" x="0" y="928.7" width="12.2" height="24.65" shape-rendering="crispEdges"/><rect fill="#12312b" x="12.2" y="928.7" width="305" height="24.65" shape-rendering="crispEdges"/><rect fill="#12312b" x="317.2" y="928.7" width="1293.2" height="24.65" shape-rendering="crispEdges"/><rect fill="#1a4239" x="0" y="953.1" width="48.8" height="24.65" shape-rendering="crispEdges"/><rect fill="#1a4239" x="48.8" y="953.1" width="158.6" height="24.65" shape-rendering="crispEdges"/><rect fill="#1a4239" x="207.4" y="953.1" width="48.8" height="24.65" shape-rendering="crispEdges"/><rect fill="#1a4239" x="256.2" y="953.1" width="61" height="24.65" shape-rendering="crispEdges"/><rect fill="#1a4239" x="317.2" y="953.1" width="48.8" height="24.65" shape-rendering="crispEdges"/><rect fill="#1a4239" x="366" y="953.1" width="61" height="24.65" shape-rendering="crispEdges"/><rect fill="#1a4239" x="427" y="953.1" width="48.8" height="24.65" shape-rendering="crispEdges"/><rect fill="#1a4239" x="475.8" y="953.1" width="73.2" height="24.65" shape-rendering="crispEdges"/><rect fill="#1a4239" x="549" y="953.1" width="48.8" height="24.65" shape-rendering="crispEdges"/><rect fill="#1a4239" x="597.8" y="953.1" width="48.8" height="24.65" shape-rendering="crispEdges"/><rect fill="#1a4239" x="646.6" y="953.1" width="963.8" height="24.65" shape-rendering="crispEdges"/>
    <g class="terminal-1027874131-matrix">
    <text class="terminal-1027874131-r2" x="12.2" y="20" textLength="1439.6" clip-path="url(#terminal-1027874131-line-0)">cdlbib&#160;·&#160;/private/var/folders/tp/qtzc39jx5w556wl5w3dj21wr0000gn/T/cdlbib-demo-51wmsgx6/cdlbib-home/library&#160;·&#160;6&#160;entries</text><text class="terminal-1027874131-r1" x="1610.4" y="20" textLength="12.2" clip-path="url(#terminal-1027874131-line-0)">
</text><text class="terminal-1027874131-r3" x="12.2" y="44.4" textLength="683.2" clip-path="url(#terminal-1027874131-line-1)">1&#160;new&#160;upstream&#160;commit&#160;·&#160;F7&#160;Library&#160;state,&#160;then&#160;u&#160;updates</text><text class="terminal-1027874131-r1" x="1610.4" y="44.4" textLength="12.2" clip-path="url(#terminal-1027874131-line-1)">
</text><text class="terminal-1027874131-r4" x="12.2" y="68.8" textLength="122" clip-path="url(#terminal-1027874131-line-2)">F2&#160;Library</text><text class="terminal-1027874131-r4" x="158.6" y="68.8" textLength="109.8" clip-path="url(#terminal-1027874131-line-2)">F3&#160;Review</text><text class="terminal-1027874131-r5" x="292.8" y="68.8" textLength="73.2" clip-path="url(#terminal-1027874131-line-2)">F4&#160;Add</text><text class="terminal-1027874131-r4" x="390.4" y="68.8" textLength="97.6" clip-path="url(#terminal-1027874131-line-2)">F5&#160;Check</text><text class="terminal-1027874131-r4" x="512.4" y="68.8" textLength="85.4" clip-path="url(#terminal-1027874131-line-2)">F6&#160;Send</text><text class="terminal-1027874131-r4" x="622.2" y="68.8" textLength="195.2" clip-path="url(#terminal-1027874131-line-2)">F7&#160;Library&#160;state</text><text class="terminal-1027874131-r4" x="841.8" y="68.8" textLength="97.6" clip-path="url(#terminal-1027874131-line-2)">F8&#160;Setup</text><text class="terminal-1027874131-r1" x="1610.4" y="68.8" textLength="12.2" clip-path="url(#terminal-1027874131-line-2)">
</text><text class="terminal-1027874131-r6" x="0" y="93.2" textLength="292.8" clip-path="url(#terminal-1027874131-line-3)">━━━━━━━━━━━━━━━━━━━━━━━╸</text><text class="terminal-1027874131-r7" x="292.8" y="93.2" textLength="73.2" clip-path="url(#terminal-1027874131-line-3)">━━━━━━</text><text class="terminal-1027874131-r6" x="366" y="93.2" textLength="1244.4" clip-path="url(#terminal-1027874131-line-3)">╺━━━━━━━━━━━━━━━━━━━━━━━━━━━━━━━━━━━━━━━━━━━━━━━━━━━━━━━━━━━━━━━━━━━━━━━━━━━━━━━━━━━━━━━━━━━━━━━━━━━━━</text><text class="terminal-1027874131-r1" x="1610.4" y="93.2" textLength="12.2" clip-path="url(#terminal-1027874131-line-3)">
</text><text class="terminal-1027874131-r5" x="12.2" y="117.6" textLength="73.2" clip-path="url(#terminal-1027874131-line-4)">Search</text><text class="terminal-1027874131-r4" x="109.8" y="117.6" textLength="122" clip-path="url(#terminal-1027874131-line-4)">Identifier</text><text class="terminal-1027874131-r4" x="256.2" y="117.6" textLength="36.6" clip-path="url(#terminal-1027874131-line-4)">PDF</text><text class="terminal-1027874131-r4" x="317.2" y="117.6" textLength="73.2" clip-path="url(#terminal-1027874131-line-4)">Manual</text><text class="terminal-1027874131-r1" x="1610.4" y="117.6" textLength="12.2" clip-path="url(#terminal-1027874131-line-4)">
</text><text class="terminal-1027874131-r6" x="0" y="142" textLength="12.2" clip-path="url(#terminal-1027874131-line-5)">╸</text><text class="terminal-1027874131-r7" x="12.2" y="142" textLength="73.2" clip-path="url(#terminal-1027874131-line-5)">━━━━━━</text><text class="terminal-1027874131-r6" x="85.4" y="142" textLength="1525" clip-path="url(#terminal-1027874131-line-5)">╺━━━━━━━━━━━━━━━━━━━━━━━━━━━━━━━━━━━━━━━━━━━━━━━━━━━━━━━━━━━━━━━━━━━━━━━━━━━━━━━━━━━━━━━━━━━━━━━━━━━━━━━━━━━━━━━━━━━━━━━━━━━━</text><text class="terminal-1027874131-r1" x="1610.4" y="142" textLength="12.2" clip-path="url(#terminal-1027874131-line-5)">
</text><text class="terminal-1027874131-r8" x="195.2" y="166.4" textLength="12.2" clip-path="url(#terminal-1027874131-line-6)">▊</text><text class="terminal-1027874131-r9" x="207.4" y="166.4" textLength="1390.8" clip-path="url(#terminal-1027874131-line-6)">▔▔▔▔▔▔▔▔▔▔▔▔▔▔▔▔▔▔▔▔▔▔▔▔▔▔▔▔▔▔▔▔▔▔▔▔▔▔▔▔▔▔▔▔▔▔▔▔▔▔▔▔▔▔▔▔▔▔▔▔▔▔▔▔▔▔▔▔▔▔▔▔▔▔▔▔▔▔▔▔▔▔▔▔▔▔▔▔▔▔▔▔▔▔▔▔▔▔▔▔▔▔▔▔▔▔▔▔▔▔▔▔▔▔</text><text class="terminal-1027874131-r9" x="1598.2" y="166.4" textLength="12.2" clip-path="url(#terminal-1027874131-line-6)">▎</text><text class="terminal-1027874131-r1" x="1610.4" y="166.4" textLength="12.2" clip-path="url(#terminal-1027874131-line-6)">
</text><text class="terminal-1027874131-r4" x="0" y="190.8" textLength="61" clip-path="url(#terminal-1027874131-line-7)">Title</text><text class="terminal-1027874131-r8" x="195.2" y="190.8" textLength="12.2" clip-path="url(#terminal-1027874131-line-7)">▊</text><text class="terminal-1027874131-r10" x="231.8" y="190.8" textLength="1342" clip-path="url(#terminal-1027874131-line-7)">Backward&#160;learning&#160;in&#160;paired&#160;associates&#160;&#160;&#160;&#160;&#160;&#160;&#160;&#160;&#160;&#160;&#160;&#160;&#160;&#160;&#160;&#160;&#160;&#160;&#160;&#160;&#160;&#160;&#160;&#160;&#160;&#160;&#160;&#160;&#160;&#160;&#160;&#160;&#160;&#160;&#160;&#160;&#160;&#160;&#160;&#160;&#160;&#160;&#160;&#160;&#160;&#160;&#160;&#160;&#160;&#160;&#160;&#160;&#160;&#160;&#160;&#160;&#160;&#160;&#160;&#160;&#160;&#160;&#160;&#160;&#160;&#160;&#160;&#160;&#160;&#160;&#160;&#160;</text><text class="terminal-1027874131-r9" x="1598.2" y="190.8" textLength="12.2" clip-path="url(#terminal-1027874131-line-7)">▎</text><text class="terminal-1027874131-r1" x="1610.4" y="190.8" textLength="12.2" clip-path="url(#terminal-1027874131-line-7)">
</text><text class="terminal-1027874131-r8" x="195.2" y="215.2" textLength="12.2" clip-path="url(#terminal-1027874131-line-8)">▊</text><text class="terminal-1027874131-r9" x="207.4" y="215.2" textLength="1390.8" clip-path="url(#terminal-1027874131-line-8)">▁▁▁▁▁▁▁▁▁▁▁▁▁▁▁▁▁▁▁▁▁▁▁▁▁▁▁▁▁▁▁▁▁▁▁▁▁▁▁▁▁▁▁▁▁▁▁▁▁▁▁▁▁▁▁▁▁▁▁▁▁▁▁▁▁▁▁▁▁▁▁▁▁▁▁▁▁▁▁▁▁▁▁▁▁▁▁▁▁▁▁▁▁▁▁▁▁▁▁▁▁▁▁▁▁▁▁▁▁▁▁▁▁▁</text><text class="terminal-1027874131-r9" x="1598.2" y="215.2" textLength="12.2" clip-path="url(#terminal-1027874131-line-8)">▎</text><text class="terminal-1027874131-r1" x="1610.4" y="215.2" textLength="12.2" clip-path="url(#terminal-1027874131-line-8)">
</text><text class="terminal-1027874131-r8" x="195.2" y="239.6" textLength="12.2" clip-path="url(#terminal-1027874131-line-9)">▊</text><text class="terminal-1027874131-r9" x="207.4" y="239.6" textLength="951.6" clip-path="url(#terminal-1027874131-line-9)">▔▔▔▔▔▔▔▔▔▔▔▔▔▔▔▔▔▔▔▔▔▔▔▔▔▔▔▔▔▔▔▔▔▔▔▔▔▔▔▔▔▔▔▔▔▔▔▔▔▔▔▔▔▔▔▔▔▔▔▔▔▔▔▔▔▔▔▔▔▔▔▔▔▔▔▔▔▔</text><text class="terminal-1027874131-r9" x="1159" y="239.6" textLength="12.2" clip-path="url(#terminal-1027874131-line-9)">▎</text><text class="terminal-1027874131-r8" x="1256.6" y="239.6" textLength="12.2" clip-path="url(#terminal-1027874131-line-9)">▊</text><text class="terminal-1027874131-r9" x="1268.8" y="239.6" textLength="122" clip-path="url(#terminal-1027874131-line-9)">▔▔▔▔▔▔▔▔▔▔</text><text class="terminal-1027874131-r9" x="1390.8" y="239.6" textLength="12.2" clip-path="url(#terminal-1027874131-line-9)">▎</text><text class="terminal-1027874131-r8" x="1403" y="239.6" textLength="12.2" clip-path="url(#terminal-1027874131-line-9)">▊</text><text class="terminal-1027874131-r9" x="1415.2" y="239.6" textLength="183" clip-path="url(#terminal-1027874131-line-9)">▔▔▔▔▔▔▔▔▔▔▔▔▔▔▔</text><text class="terminal-1027874131-r9" x="1598.2" y="239.6" textLength="12.2" clip-path="url(#terminal-1027874131-line-9)">▎</text><text class="terminal-1027874131-r1" x="1610.4" y="239.6" textLength="12.2" clip-path="url(#terminal-1027874131-line-9)">
</text><text class="terminal-1027874131-r4" x="0" y="264" textLength="85.4" clip-path="url(#terminal-1027874131-line-10)">Authors</text><text class="terminal-1027874131-r8" x="195.2" y="264" textLength="12.2" clip-path="url(#terminal-1027874131-line-10)">▊</text><text class="terminal-1027874131-r4" x="231.8" y="264" textLength="475.8" clip-path="url(#terminal-1027874131-line-10)">One&#160;or&#160;several&#160;surnames,&#160;separated&#160;by&#160;;</text><text class="terminal-1027874131-r9" x="1159" y="264" textLength="12.2" clip-path="url(#terminal-1027874131-line-10)">▎</text><text class="terminal-1027874131-r4" x="1183.4" y="264" textLength="48.8" clip-path="url(#terminal-1027874131-line-10)">Year</text><text class="terminal-1027874131-r8" x="1256.6" y="264" textLength="12.2" clip-path="url(#terminal-1027874131-line-10)">▊</text><text class="terminal-1027874131-r4" x="1293.2" y="264" textLength="48.8" clip-path="url(#terminal-1027874131-line-10)">Year</text><text class="terminal-1027874131-r9" x="1390.8" y="264" textLength="12.2" clip-path="url(#terminal-1027874131-line-10)">▎</text><text class="terminal-1027874131-r8" x="1403" y="264" textLength="12.2" clip-path="url(#terminal-1027874131-line-10)">▊</text><text class="terminal-1027874131-r11" x="1415.2" y="264" textLength="183" clip-path="url(#terminal-1027874131-line-10)">&#160;Find&#160;(ctrl+f)&#160;</text><text class="terminal-1027874131-r9" x="1598.2" y="264" textLength="12.2" clip-path="url(#terminal-1027874131-line-10)">▎</text><text class="terminal-1027874131-r1" x="1610.4" y="264" textLength="12.2" clip-path="url(#terminal-1027874131-line-10)">
</text><text class="terminal-1027874131-r8" x="195.2" y="288.4" textLength="12.2" clip-path="url(#terminal-1027874131-line-11)">▊</text><text class="terminal-1027874131-r9" x="207.4" y="288.4" textLength="951.6" clip-path="url(#terminal-1027874131-line-11)">▁▁▁▁▁▁▁▁▁▁▁▁▁▁▁▁▁▁▁▁▁▁▁▁▁▁▁▁▁▁▁▁▁▁▁▁▁▁▁▁▁▁▁▁▁▁▁▁▁▁▁▁▁▁▁▁▁▁▁▁▁▁▁▁▁▁▁▁▁▁▁▁▁▁▁▁▁▁</text><text class="terminal-1027874131-r9" x="1159" y="288.4" textLength="12.2" clip-path="url(#terminal-1027874131-line-11)">▎</text><text class="terminal-1027874131-r8" x="1256.6" y="288.4" textLength="12.2" clip-path="url(#terminal-1027874131-line-11)">▊</text><text class="terminal-1027874131-r9" x="1268.8" y="288.4" textLength="122" clip-path="url(#terminal-1027874131-line-11)">▁▁▁▁▁▁▁▁▁▁</text><text class="terminal-1027874131-r9" x="1390.8" y="288.4" textLength="12.2" clip-path="url(#terminal-1027874131-line-11)">▎</text><text class="terminal-1027874131-r8" x="1403" y="288.4" textLength="12.2" clip-path="url(#terminal-1027874131-line-11)">▊</text><text class="terminal-1027874131-r9" x="1415.2" y="288.4" textLength="183" clip-path="url(#terminal-1027874131-line-11)">▁▁▁▁▁▁▁▁▁▁▁▁▁▁▁</text><text class="terminal-1027874131-r9" x="1598.2" y="288.4" textLength="12.2" clip-path="url(#terminal-1027874131-line-11)">▎</text><text class="terminal-1027874131-r1" x="1610.4" y="288.4" textLength="12.2" clip-path="url(#terminal-1027874131-line-11)">
</text><text class="terminal-1027874131-r10" x="12.2" y="312.8" textLength="1500.6" clip-path="url(#terminal-1027874131-line-12)">3&#160;records&#160;found.&#160;enter&#160;proposes&#160;the&#160;selected&#160;one&#160;(space&#160;marks&#160;several).&#160;“In&#160;library”&#160;names&#160;the&#160;entry&#160;that&#160;is&#160;the&#160;same&#160;work.</text><text class="terminal-1027874131-r1" x="1610.4" y="312.8" textLength="12.2" clip-path="url(#terminal-1027874131-line-12)">
</text><text class="terminal-1027874131-r1" x="1610.4" y="337.2" textLength="12.2" clip-path="url(#terminal-1027874131-line-13)">
</text><text class="terminal-1027874131-r5" x="36.6" y="361.6" textLength="146.4" clip-path="url(#terminal-1027874131-line-14)">&#160;In&#160;library&#160;</text><text class="terminal-1027874131-r5" x="183" y="361.6" textLength="219.6" clip-path="url(#terminal-1027874131-line-14)">&#160;Source&#160;&#160;&#160;&#160;&#160;&#160;&#160;&#160;&#160;&#160;&#160;</text><text class="terminal-1027874131-r5" x="402.6" y="361.6" textLength="341.6" clip-path="url(#terminal-1027874131-line-14)">&#160;Authors&#160;&#160;&#160;&#160;&#160;&#160;&#160;&#160;&#160;&#160;&#160;&#160;&#160;&#160;&#160;&#160;&#160;&#160;&#160;&#160;</text><text class="terminal-1027874131-r5" x="744.2" y="361.6" textLength="73.2" clip-path="url(#terminal-1027874131-line-14)">&#160;Year&#160;</text><text class="terminal-1027874131-r5" x="817.4" y="361.6" textLength="610" clip-path="url(#terminal-1027874131-line-14)">&#160;Title&#160;&#160;&#160;&#160;&#160;&#160;&#160;&#160;&#160;&#160;&#160;&#160;&#160;&#160;&#160;&#160;&#160;&#160;&#160;&#160;&#160;&#160;&#160;&#160;&#160;&#160;&#160;&#160;&#160;&#160;&#160;&#160;&#160;&#160;&#160;&#160;&#160;&#160;&#160;&#160;&#160;&#160;&#160;&#160;</text><text class="terminal-1027874131-r5" x="1427.4" y="361.6" textLength="183" clip-path="url(#terminal-1027874131-line-14)">&#160;Identifier&#160;&#160;&#160;&#160;</text><text class="terminal-1027874131-r1" x="1610.4" y="361.6" textLength="12.2" clip-path="url(#terminal-1027874131-line-14)">
</text><text class="terminal-1027874131-r2" x="183" y="386" textLength="219.6" clip-path="url(#terminal-1027874131-line-15)">&#160;crossref,&#160;pubmed&#160;</text><text class="terminal-1027874131-r2" x="402.6" y="386" textLength="341.6" clip-path="url(#terminal-1027874131-line-15)">&#160;Bennet&#160;B.&#160;Murdock&#160;&#160;&#160;&#160;&#160;&#160;&#160;&#160;&#160;&#160;</text><text class="terminal-1027874131-r2" x="744.2" y="386" textLength="73.2" clip-path="url(#terminal-1027874131-line-15)">&#160;1956&#160;</text><text class="terminal-1027874131-r2" x="817.4" y="386" textLength="610" clip-path="url(#terminal-1027874131-line-15)">&#160;&quot;Backward&quot;&#160;learning&#160;in&#160;paired&#160;associates.&#160;&#160;&#160;&#160;&#160;&#160;&#160;&#160;</text><text class="terminal-1027874131-r2" x="1427.4" y="386" textLength="183" clip-path="url(#terminal-1027874131-line-15)">&#160;10.1037/h00443</text><text class="terminal-1027874131-r1" x="1610.4" y="386" textLength="12.2" clip-path="url(#terminal-1027874131-line-15)">
</text><text class="terminal-1027874131-r10" x="183" y="410.4" textLength="219.6" clip-path="url(#terminal-1027874131-line-16)">&#160;crossref&#160;&#160;&#160;&#160;&#160;&#160;&#160;&#160;&#160;</text><text class="terminal-1027874131-r10" x="744.2" y="410.4" textLength="73.2" clip-path="url(#terminal-1027874131-line-16)">&#160;1965&#160;</text><text class="terminal-1027874131-r10" x="817.4" y="410.4" textLength="610" clip-path="url(#terminal-1027874131-line-16)">&#160;Meaningfulness&#160;in&#160;Paired-Associates&#160;Learning&#160;&#160;&#160;&#160;&#160;</text><text class="terminal-1027874131-r10" x="1427.4" y="410.4" textLength="183" clip-path="url(#terminal-1027874131-line-16)">&#160;10.1016/b978-1</text><text class="terminal-1027874131-r1" x="1610.4" y="410.4" textLength="12.2" clip-path="url(#terminal-1027874131-line-16)">
</text><text class="terminal-1027874131-r10" x="183" y="434.8" textLength="219.6" clip-path="url(#terminal-1027874131-line-17)">&#160;pubmed&#160;&#160;&#160;&#160;&#160;&#160;&#160;&#160;&#160;&#160;&#160;</text><text class="terminal-1027874131-r10" x="402.6" y="434.8" textLength="341.6" clip-path="url(#terminal-1027874131-line-17)">&#160;A&#160;A&#160;Baumeister;&#160;C&#160;Campbell&#160;</text><text class="terminal-1027874131-r10" x="744.2" y="434.8" textLength="73.2" clip-path="url(#terminal-1027874131-line-17)">&#160;1971&#160;</text><text class="terminal-1027874131-r10" x="817.4" y="434.8" textLength="610" clip-path="url(#terminal-1027874131-line-17)">&#160;Formation&#160;of&#160;backward&#160;associations&#160;in&#160;paired-as…&#160;</text><text class="terminal-1027874131-r10" x="1427.4" y="434.8" textLength="183" clip-path="url(#terminal-1027874131-line-17)">&#160;10.1037/h00312</text><text class="terminal-1027874131-r1" x="1610.4" y="434.8" textLength="12.2" clip-path="url(#terminal-1027874131-line-17)">
</text><text class="terminal-1027874131-r1" x="1610.4" y="459.2" textLength="12.2" clip-path="url(#terminal-1027874131-line-18)">
</text><text class="terminal-1027874131-r1" x="1610.4" y="483.6" textLength="12.2" clip-path="url(#terminal-1027874131-line-19)">
</text><text class="terminal-1027874131-r1" x="1610.4" y="508" textLength="12.2" clip-path="url(#terminal-1027874131-line-20)">
</text><text class="terminal-1027874131-r1" x="1610.4" y="532.4" textLength="12.2" clip-path="url(#terminal-1027874131-line-21)">
</text><text class="terminal-1027874131-r1" x="1610.4" y="556.8" textLength="12.2" clip-path="url(#terminal-1027874131-line-22)">
</text><text class="terminal-1027874131-r1" x="1610.4" y="581.2" textLength="12.2" clip-path="url(#terminal-1027874131-line-23)">
</text><text class="terminal-1027874131-r1" x="1610.4" y="605.6" textLength="12.2" clip-path="url(#terminal-1027874131-line-24)">
</text><text class="terminal-1027874131-r1" x="1610.4" y="630" textLength="12.2" clip-path="url(#terminal-1027874131-line-25)">
</text><text class="terminal-1027874131-r1" x="1610.4" y="654.4" textLength="12.2" clip-path="url(#terminal-1027874131-line-26)">
</text><text class="terminal-1027874131-r1" x="1610.4" y="678.8" textLength="12.2" clip-path="url(#terminal-1027874131-line-27)">
</text><text class="terminal-1027874131-r1" x="1610.4" y="703.2" textLength="12.2" clip-path="url(#terminal-1027874131-line-28)">
</text><text class="terminal-1027874131-r1" x="1610.4" y="727.6" textLength="12.2" clip-path="url(#terminal-1027874131-line-29)">
</text><text class="terminal-1027874131-r1" x="1610.4" y="752" textLength="12.2" clip-path="url(#terminal-1027874131-line-30)">
</text><text class="terminal-1027874131-r1" x="1610.4" y="776.4" textLength="12.2" clip-path="url(#terminal-1027874131-line-31)">
</text><text class="terminal-1027874131-r1" x="1610.4" y="800.8" textLength="12.2" clip-path="url(#terminal-1027874131-line-32)">
</text><text class="terminal-1027874131-r1" x="1610.4" y="825.2" textLength="12.2" clip-path="url(#terminal-1027874131-line-33)">
</text><text class="terminal-1027874131-r1" x="1610.4" y="849.6" textLength="12.2" clip-path="url(#terminal-1027874131-line-34)">
</text><text class="terminal-1027874131-r1" x="1610.4" y="874" textLength="12.2" clip-path="url(#terminal-1027874131-line-35)">
</text><text class="terminal-1027874131-r1" x="1610.4" y="898.4" textLength="12.2" clip-path="url(#terminal-1027874131-line-36)">
</text><text class="terminal-1027874131-r9" x="1146.8" y="922.8" textLength="12.2" clip-path="url(#terminal-1027874131-line-37)">▎</text><text class="terminal-1027874131-r1" x="1610.4" y="922.8" textLength="12.2" clip-path="url(#terminal-1027874131-line-37)">
</text><text class="terminal-1027874131-r4" x="12.2" y="947.2" textLength="305" clip-path="url(#terminal-1027874131-line-38)">idle&#160;·&#160;F1&#160;lists&#160;every&#160;key</text><text class="terminal-1027874131-r1" x="1610.4" y="947.2" textLength="12.2" clip-path="url(#terminal-1027874131-line-38)">
</text><text class="terminal-1027874131-r5" x="0" y="971.6" textLength="48.8" clip-path="url(#terminal-1027874131-line-39)">&#160;^f&#160;</text><text class="terminal-1027874131-r10" x="48.8" y="971.6" textLength="158.6" clip-path="url(#terminal-1027874131-line-39)">Find&#160;records&#160;</text><text class="terminal-1027874131-r5" x="207.4" y="971.6" textLength="48.8" clip-path="url(#terminal-1027874131-line-39)">&#160;^q&#160;</text><text class="terminal-1027874131-r10" x="256.2" y="971.6" textLength="61" clip-path="url(#terminal-1027874131-line-39)">Quit&#160;</text><text class="terminal-1027874131-r5" x="317.2" y="971.6" textLength="48.8" clip-path="url(#terminal-1027874131-line-39)">&#160;f1&#160;</text><text class="terminal-1027874131-r10" x="366" y="971.6" textLength="61" clip-path="url(#terminal-1027874131-line-39)">Help&#160;</text><text class="terminal-1027874131-r5" x="427" y="971.6" textLength="48.8" clip-path="url(#terminal-1027874131-line-39)">&#160;^t&#160;</text><text class="terminal-1027874131-r10" x="475.8" y="971.6" textLength="73.2" clip-path="url(#terminal-1027874131-line-39)">Theme&#160;</text><text class="terminal-1027874131-r5" x="549" y="971.6" textLength="48.8" clip-path="url(#terminal-1027874131-line-39)">&#160;^l&#160;</text><text class="terminal-1027874131-r10" x="597.8" y="971.6" textLength="48.8" clip-path="url(#terminal-1027874131-line-39)">Log&#160;</text>
    </g>
    </g>
</svg>
